<svg width="64" height="64" viewBox="0 0 64 64" xmlns="http://www.w3.org/2000/svg">
  <defs>
    <linearGradient id="g2" x1="0" y1="0" x2="1" y2="1">
      <stop offset="0%" stop-color="#80C0D0"/>
      <stop offset="100%" stop-color="#20B0B0"/>
    </linearGradient>
  </defs>
  <circle cx="32" cy="32" r="30" fill="url(#g2)"/>
  <path d="M32 14c4 7 5 12 0 17-5-5-4-10 0-17z" fill="#FFFFFF"/>
  <path d="M20 22c7 3 11 8 10 15-7-1-11-5-10-15z" fill="#FFFFFF" opacity="0.95"/>
  <path d="M44 22c-7 3-11 8-10 15 7-1 11-5 10-15z" fill="#FFFFFF" opacity="0.95"/>
  <path d="M14 35c10 0 15 3 18 10-10 1-16-2-18-10z" fill="#FFFFFF" opacity="0.92"/>
  <path d="M50 35c-10 0-15 3-18 10 10 1 16-2 18-10z" fill="#FFFFFF" opacity="0.92"/>
  <circle cx="32" cy="45" r="3" fill="#FFFFFF"/>
</svg>
